<svg width="2918" height="2131" viewBox="0 0 2918 2131" fill="none" xmlns="http://www.w3.org/2000/svg">
<g filter="url(#filter0_f_601_5943)">
<path d="M948.019 1300.18C1183.96 1327.56 1386.47 1177.63 1359.16 1412.96C1331.85 1648.29 1098.88 1907.85 891.474 1460.01C655.53 1432.63 202.076 1692.7 319.445 815.665C438.471 1006.12 712.076 1272.8 948.019 1300.18Z" fill="url(#paint0_diamond_601_5943)" fill-opacity="0.7"/>
<path d="M948.019 1300.18C1183.96 1327.56 1386.47 1177.63 1359.16 1412.96C1331.85 1648.29 1098.88 1907.85 891.474 1460.01C655.53 1432.63 202.076 1692.7 319.445 815.665C438.471 1006.12 712.076 1272.8 948.019 1300.18Z" fill="url(#paint1_radial_601_5943)" fill-opacity="0.6"/>
</g>
<g style="mix-blend-mode:difference" filter="url(#filter1_f_601_5943)">
<path d="M2481.06 434.963C2492.76 423.196 2505.02 411.536 2517.84 400C2509.19 409.564 2496.7 421.391 2481.06 434.963C2005.73 912.666 2427.18 1567.41 2116.64 1341.77C1798.44 1110.57 2532.86 1236.45 2091.02 1080.45C1975.84 1039.78 1854.09 1018.32 1742.23 1003.37C1695.23 1039.12 1646.15 1075.93 1596.57 1113.15C1654.48 1198.3 1718.1 1292.89 1773.6 1388.88C1919.58 1641.37 1031.18 1793.47 997.469 1705.73C955.467 1596.43 1285.76 1346.54 1596.57 1113.15C1562.34 1062.82 1530.1 1015.78 1502.73 973.707C1396.45 958.073 1325.46 936.96 1321.12 886.201C1310.5 761.972 897.91 886.574 782.429 925.924C666.948 965.274 617.289 931.241 1021.89 831.419C1266.53 771.063 1448.13 762.298 1576.57 778.361C1660.28 780.229 1709.54 777.015 1736.93 772.877C1755.81 751.501 1794.28 764.214 1736.93 772.877C1729.3 781.519 1724.88 795.733 1731.28 818.039C1752.35 827.363 1769.85 837.529 1783.98 847.997C1927.62 831.613 2337.35 559.656 2481.06 434.963Z" fill="url(#paint2_diamond_601_5943)"/>
<path d="M2481.06 434.963C2492.76 423.196 2505.02 411.536 2517.84 400C2509.19 409.564 2496.7 421.391 2481.06 434.963C2005.73 912.666 2427.18 1567.41 2116.64 1341.77C1798.44 1110.57 2532.86 1236.45 2091.02 1080.45C1975.84 1039.78 1854.09 1018.32 1742.23 1003.37C1695.23 1039.12 1646.15 1075.93 1596.57 1113.15C1654.48 1198.3 1718.1 1292.89 1773.6 1388.88C1919.58 1641.37 1031.18 1793.47 997.469 1705.73C955.467 1596.43 1285.76 1346.54 1596.57 1113.15C1562.34 1062.82 1530.1 1015.78 1502.73 973.707C1396.45 958.073 1325.46 936.96 1321.12 886.201C1310.5 761.972 897.91 886.574 782.429 925.924C666.948 965.274 617.289 931.241 1021.89 831.419C1266.53 771.063 1448.13 762.298 1576.57 778.361C1660.28 780.229 1709.54 777.015 1736.93 772.877C1755.81 751.501 1794.28 764.214 1736.93 772.877C1729.3 781.519 1724.88 795.733 1731.28 818.039C1752.35 827.363 1769.85 837.529 1783.98 847.997C1927.62 831.613 2337.35 559.656 2481.06 434.963Z" fill="url(#paint3_radial_601_5943)" fill-opacity="0.9"/>
</g>
<defs>
<filter id="filter0_f_601_5943" x="0.38208" y="515.665" width="1661.26" height="1489.03" filterUnits="userSpaceOnUse" color-interpolation-filters="sRGB">
<feFlood flood-opacity="0" result="BackgroundImageFix"/>
<feBlend mode="normal" in="SourceGraphic" in2="BackgroundImageFix" result="shape"/>
<feGaussianBlur stdDeviation="150" result="effect1_foregroundBlur_601_5943"/>
</filter>
<filter id="filter1_f_601_5943" x="300.305" y="0.000488281" width="2617.53" height="2130.73" filterUnits="userSpaceOnUse" color-interpolation-filters="sRGB">
<feFlood flood-opacity="0" result="BackgroundImageFix"/>
<feBlend mode="normal" in="SourceGraphic" in2="BackgroundImageFix" result="shape"/>
<feGaussianBlur stdDeviation="200" result="effect1_foregroundBlur_601_5943"/>
</filter>
<radialGradient id="paint0_diamond_601_5943" cx="0" cy="0" r="1" gradientUnits="userSpaceOnUse" gradientTransform="translate(468.66 1624.71) rotate(-28.6373) scale(1119.21 512.542)">
<stop offset="0.34375" stop-color="white"/>
<stop offset="0.954743" stop-color="#0C9AAC"/>
<stop offset="1" stop-color="white"/>
</radialGradient>
<radialGradient id="paint1_radial_601_5943" cx="0" cy="0" r="1" gradientUnits="userSpaceOnUse" gradientTransform="translate(582.54 1516.75) rotate(-23.9263) scale(958.227 1658.45)">
<stop offset="0.443511" stop-color="#DE612F"/>
<stop offset="0.90625" stop-color="#0C9AAC"/>
</radialGradient>
<radialGradient id="paint2_diamond_601_5943" cx="0" cy="0" r="1" gradientUnits="userSpaceOnUse" gradientTransform="translate(2609.34 1302.34) rotate(-158.071) scale(1710.39 770.953)">
<stop offset="0.34375" stop-color="white"/>
<stop offset="0.954743" stop-color="#0C9AAC"/>
<stop offset="1" stop-color="white"/>
</radialGradient>
<radialGradient id="paint3_radial_601_5943" cx="0" cy="0" r="1" gradientUnits="userSpaceOnUse" gradientTransform="translate(2329.07 1254.63) rotate(-135.308) scale(911.851 2735.88)">
<stop offset="0.213542" stop-color="#DE612F"/>
<stop offset="1" stop-color="#0C9AAC"/>
</radialGradient>
</defs>
</svg>
